<svg width="23" height="23" viewBox="0 0 23 23" fill="none" xmlns="http://www.w3.org/2000/svg">
<g id="Profile - Fill">
<g id="Rectangle 5">
<path fill-rule="evenodd" clip-rule="evenodd" d="M0.75 22.75V19.75C0.75 17.5409 2.54045 15.75 4.74937 15.75H17.7506C19.9594 15.75 21.75 17.5454 21.75 19.75V22.75" fill="black"/>
<path d="M0.75 22.75V19.75C0.75 17.5409 2.54045 15.75 4.74937 15.75H17.7506C19.9594 15.75 21.75 17.5454 21.75 19.75V22.75" stroke="black" stroke-width="1.5"/>
</g>
<path id="Oval 4" fill-rule="evenodd" clip-rule="evenodd" d="M11.25 11.75C14.2876 11.75 16.75 9.28757 16.75 6.25C16.75 3.21243 14.2876 0.75 11.25 0.75C8.21243 0.75 5.75 3.21243 5.75 6.25C5.75 9.28757 8.21243 11.75 11.25 11.75Z" fill="black" stroke="black" stroke-width="1.5"/>
</g>
</svg>
