<svg width="21" height="18" viewBox="0 0 21 18" fill="none" xmlns="http://www.w3.org/2000/svg">
<g id="Menu">
<g id="Menu_2">
<path d="M0 0.75C0 0.335786 0.335786 0 0.75 0H20.25C20.6642 0 21 0.335786 21 0.75C21 1.16421 20.6642 1.5 20.25 1.5H0.75C0.335786 1.5 0 1.16421 0 0.75Z" fill="black"/>
<path d="M0 8.75C0 8.33579 0.335786 8 0.75 8H20.25C20.6642 8 21 8.33579 21 8.75C21 9.16421 20.6642 9.5 20.25 9.5H0.75C0.335786 9.5 0 9.16421 0 8.75Z" fill="black"/>
<path d="M0.75 16C0.335786 16 0 16.3358 0 16.75C0 17.1642 0.335786 17.5 0.75 17.5H20.25C20.6642 17.5 21 17.1642 21 16.75C21 16.3358 20.6642 16 20.25 16H0.75Z" fill="black"/>
</g>
</g>
</svg>
